<?xml version="1.0" encoding="iso-8859-1"?>
<!-- Generator: Adobe Illustrator 16.0.0, SVG Export Plug-In . SVG Version: 6.00 Build 0)  -->
<!DOCTYPE svg PUBLIC "-//W3C//DTD SVG 1.1//EN" "http://www.w3.org/Graphics/SVG/1.1/DTD/svg11.dtd">
<svg version="1.1" id="Capa_1" xmlns="http://www.w3.org/2000/svg" xmlns:xlink="http://www.w3.org/1999/xlink" x="0px" y="0px"
	 width="379.849px" height="379.849px" viewBox="0 0 379.849 379.849" style="enable-background:new 0 0 379.849 379.849;"
	 xml:space="preserve">
<g>
	<g>
		<path d="M79.989,52.284L0,27.751l0.012,321.536l102.355-24.725V59.151l-6.855-2.109v-1.917h150.712v269.297h15.546V39.579H79.989
			V52.284z M25.021,201.543c-5.223,0-9.458-4.996-9.458-11.154c0-6.141,4.235-11.125,9.458-11.125c5.211,0,9.446,4.984,9.446,11.125
			C34.456,196.547,30.232,201.543,25.021,201.543z"/>
		<path d="M306.036,166.002c12.572,0,22.912-9.26,24.841-21.286l9.272-13.077l-10.48-6.164l-2.463-12.339l-10.48,4.322
			l-14.791-9.876l-5.553,8.65l-13.56-2.463l2.905,12.066c-3.068,4.212-4.95,9.312-4.95,14.896
			C280.777,154.674,292.083,166.002,306.036,166.002z"/>
		<polygon points="296.788,258.939 290.235,303.625 296.381,345.534 288.793,345.534 288.793,352.098 325.764,352.098 
			325.764,345.534 324.602,345.534 314.877,303.625 329.97,258.591 		"/>
		<path d="M379.849,252.666c0,0,0-65.669-6.982-74.79c-3.985-5.223-19.659-7.262-25.817-8.058v-4.52
			c0-1.382-1.127-2.498-2.509-2.498c-1.371,0-2.498,1.116-2.498,2.498v4.107c-1.952-0.087-3.172-0.064-3.172-0.064v1.94l-5.461-1.94
			h-36.622v41.845l6.878-6.902l-0.069-24.422l19.612-0.313v41.571L323,221.156l-26.212,22.262v12.664h36.622v-9.667l5.461-3.126
			v4.543L379.849,252.666z M333.41,235.041v-54.48l5.438,1.487v49.867L333.41,235.041z"/>
		<polygon points="319.862,182.704 306.571,182.814 306.222,206.214 276.409,234.982 286.47,248.042 319.862,218.53 		"/>
		<path d="M149.898,166.525c-0.285,0.976-0.598,1.929-0.761,2.974c-0.215,1.272-0.325,2.603-0.325,3.939
			c0,13.158,10.672,23.853,23.858,23.853c13.158,0,23.848-10.684,23.848-23.853c0-2.655-0.534-5.13-1.312-7.494l4.845-6.704
			l-8.679-3.044l1.707-8.877l-10.607,3.039l-4.88-10.225l-9.051,9.452l-7.006-8.139l-3.312,10.741l-11.241-3.7l4.235,9.469
			l-8.186,2.312L149.898,166.525z"/>
		<path d="M201.538,203.937l-17.079-3.079c0,0-3.259,10.026-12.252,10.585c-8.97,0.488-12.374-10.585-12.374-10.585l-14.407,3.404
			l-11.566,31.255h-12.327v11.351h6.82v64.728h5.554v-64.728h17.422l0.093,8.005h-9.004v3.916h7.709v49.832h17.085v-49.832h11.299
			v49.832h17.079v-49.832h6.716v-3.916h-7.9v-8.005h22.25v64.728h5.554v-64.728h8.539v-11.351h-20.89L201.538,203.937z
			 M145.861,235.517l5.217-14.466l0.151,14.466H145.861z M194.416,235.517v-16.662l5.193,16.662H194.416z"/>
	</g>
</g>
<g>
</g>
<g>
</g>
<g>
</g>
<g>
</g>
<g>
</g>
<g>
</g>
<g>
</g>
<g>
</g>
<g>
</g>
<g>
</g>
<g>
</g>
<g>
</g>
<g>
</g>
<g>
</g>
<g>
</g>
</svg>
