<svg height="512" viewBox="0 0 64 64" width="512" xmlns="http://www.w3.org/2000/svg"><g id="Meteorite-3" data-name="Meteorite"><path d="m37 12a24.842 24.842 0 0 0 -10.339 2.247l-7.954-7.954-1.414 1.414 7.492 7.493a25.176 25.176 0 0 0 -4.731 3.441l-11.347-11.348-1.414 1.414 11.347 11.347a25.176 25.176 0 0 0 -3.44 4.731l-7.493-7.492-1.414 1.414 7.954 7.954a24.783 24.783 0 0 0 -1.909 6.263l-4.631-4.631-1.414 1.414 5.759 5.759c-.031.508-.052 1.018-.052 1.534a25 25 0 1 0 25-25zm23 25a22.879 22.879 0 0 1 -4.689 13.9l-2.311-2.314v-4.586a1 1 0 0 0 -.293-.707l-3.707-3.707v-3.172l1.707-1.707a1 1 0 0 0 .293-.707v-6a1 1 0 0 0 -.293-.707l-5-5a1 1 0 0 0 -.707-.293h-4.586l-3.414-3.414v-4.586a23.026 23.026 0 0 1 23 23zm-23.293 19.293-1.707-1.707v-3.586a1 1 0 0 0 -1-1h-3.586l-1.414-1.414v-2.172l3.414-3.414h7.172l4.414 4.414v3.172l-1.707 1.707a1 1 0 0 0 -.293.707v3.586l-2.707 2.707a.986.986 0 0 0 -.274.613c-.666.058-1.338.094-2.019.094v-3a1 1 0 0 0 -.293-.707zm5.251 3.163 1.749-1.749a1 1 0 0 0 .293-.707v-3.586l1.707-1.707a1 1 0 0 0 .293-.707v-4a1 1 0 0 0 -.293-.707l-5-5a1 1 0 0 0 -.707-.293h-8a1 1 0 0 0 -.707.293l-4 4a1 1 0 0 0 -.293.707v3a1 1 0 0 0 .293.707l2 2a1 1 0 0 0 .707.293h3v3a1 1 0 0 0 .293.707l1.707 1.707v2.494a22.927 22.927 0 0 1 -14.044-6.45l1.751-1.751a1 1 0 0 0 .293-.707v-2.586l2.707-2.707a1 1 0 0 0 .293-.707v-3a1 1 0 0 0 -.293-.707l-5-5-1.414 1.414 4.707 4.707v2.172l-2.707 2.707a1 1 0 0 0 -.293.707v2.586l-1.414 1.414a22.929 22.929 0 0 1 -2.629-26.262 1.983 1.983 0 0 0 .673.879l3.58 2.6-1.368 4.208a2 2 0 0 0 3.078 2.236l3.58-2.6 3.58 2.6a1.967 1.967 0 0 0 2.351 0 1.97 1.97 0 0 0 .727-2.235l-1.368-4.207 3.58-2.6a2 2 0 0 0 -1.176-3.619h-4.424l-1.37-4.208a2 2 0 0 0 -3.8 0l-1.37 4.208h-4.424c-.015 0-.027.006-.041.006a22.987 22.987 0 0 1 16.235-8.914v4.908a1 1 0 0 0 .293.707l4 4a1 1 0 0 0 .707.293h4.586l4.414 4.414v5.172l-1.707 1.707a1 1 0 0 0 -.293.707v4a1 1 0 0 0 .293.707l3.707 3.707v4.586a1 1 0 0 0 .293.707l2.736 2.737a23.012 23.012 0 0 1 -12.071 7.012zm-12.295-30.31 1.592 4.9-4.167-3.028a1 1 0 0 0 -1.176 0l-4.167 3.027 1.592-4.9a1 1 0 0 0 -.363-1.118l-4.168-3.027h5.151a1 1 0 0 0 .951-.691l1.592-4.909v.012l1.592 4.9a1 1 0 0 0 .951.691h5.151l-4.168 3.028a1 1 0 0 0 -.363 1.115z"/><path d="m43 27h-6a1 1 0 0 0 -1 1v2a1 1 0 0 0 .293.707l1.707 1.707v3.586a1 1 0 0 0 1 1h2a1 1 0 0 0 .707-.293l2-2a1 1 0 0 0 .293-.707v-6a1 1 0 0 0 -1-1zm-1 6.586-1.414 1.414h-.586v-3a1 1 0 0 0 -.293-.707l-1.707-1.707v-.586h4z"/><path d="m3.5 2.379h2v4.243h-2z" transform="matrix(.707 -.707 .707 .707 -1.864 4.5)"/><path d="m14 2.586h2v2.828h-2z" transform="matrix(.707 -.707 .707 .707 1.565 11.778)"/><path d="m3 13.586h2v2.828h-2z" transform="matrix(.707 -.707 .707 .707 -9.435 7.222)"/><path d="m3 24.586h2v2.828h-2z" transform="matrix(.707 -.707 .707 .707 -17.213 10.444)"/><path d="m55 10h2v-2h2v-2h-2v-2h-2v2h-2v2h2z"/><path d="m5 52h2v2h-2z"/><path d="m15 58h2v2h-2z"/><path d="m5 40h2v2h-2z"/><path d="m40 2h2v2h-2z"/><path d="m58 16h2v2h-2z"/><path d="m32 7h2v2h-2z"/></g></svg>